<mxfile host="app.diagrams.net" modified="2023-11-02T04:04:15.458Z" agent="Mozilla/5.0 (Windows NT 10.0; Win64; x64) AppleWebKit/537.36 (KHTML, like Gecko) Chrome/118.0.0.0 Safari/537.36 Edg/118.0.2088.76" version="22.0.8" etag="3z1KJyJ01f22PRgz8_9I" type="github">
  <diagram name="第 1 页" id="vjXQTwv6x2cINabQ48_w">
    <mxGraphModel>
      <root>
        <mxCell id="0" />
        <mxCell id="1" parent="0" />
      </root>
    </mxGraphModel>
  </diagram>
</mxfile>
